<svg width="27" height="27" viewBox="0 0 27 27" fill="none" xmlns="http://www.w3.org/2000/svg">
<g clip-path="url(#clip0_60_943)">
<path fill-rule="evenodd" clip-rule="evenodd" d="M13.3947 0.81665C10.3086 0.818252 7.3236 1.91131 4.97357 3.90038C2.62353 5.88945 1.06169 8.64483 0.5673 11.6738C0.0729113 14.7028 0.678214 17.8079 2.27499 20.4338C3.87176 23.0598 6.35587 25.0354 9.28313 26.0074C9.92894 26.1272 10.1722 25.727 10.1722 25.3866C10.1722 25.0463 10.1593 24.0596 10.155 22.9808C6.53847 23.7621 5.77428 21.4547 5.77428 21.4547C5.18444 19.9564 4.33198 19.5625 4.33198 19.5625C3.15232 18.762 4.42025 18.777 4.42025 18.777C5.72692 18.869 6.41363 20.1105 6.41363 20.1105C7.57177 22.0861 9.45535 21.5146 10.1959 21.1807C10.3121 20.3438 10.6501 19.7744 11.0225 19.4512C8.13361 19.1259 5.09833 18.0171 5.09833 13.0642C5.08043 11.7797 5.55982 10.5375 6.4373 9.59455C6.30384 9.26921 5.85823 7.95499 6.56431 6.16987C6.56431 6.16987 7.65572 5.82312 10.1399 7.49479C12.2707 6.91541 14.5188 6.91541 16.6496 7.49479C19.1316 5.82312 20.2209 6.16987 20.2209 6.16987C20.9291 7.95071 20.4835 9.26493 20.35 9.59455C21.2303 10.5376 21.7107 11.782 21.6912 13.0685C21.6912 18.0321 18.6494 19.1259 15.7562 19.4448C16.2212 19.8472 16.6367 20.6327 16.6367 21.84C16.6367 23.5694 16.6216 24.9607 16.6216 25.3866C16.6216 25.7313 16.8562 26.1337 17.515 26.0074C20.4426 25.0353 22.9269 23.0593 24.5237 20.4329C26.1204 17.8065 26.7254 14.701 26.2304 11.6717C25.7355 8.64244 24.1729 5.88703 21.8221 3.89831C19.4713 1.90958 16.4856 0.817237 13.399 0.81665H13.3947Z" fill="white"/>
<path d="M5.3176 19.3763C5.28961 19.4405 5.18629 19.4598 5.10233 19.4149C5.01838 19.3699 4.95596 19.2864 4.98609 19.2201C5.01623 19.1537 5.11741 19.1366 5.20136 19.1816C5.28531 19.2265 5.34989 19.3121 5.3176 19.3763Z" fill="white"/>
<path d="M5.84501 19.9607C5.80043 19.983 5.74942 19.9893 5.70073 19.9783C5.65204 19.9674 5.60868 19.94 5.57808 19.9008C5.49413 19.8109 5.47689 19.6867 5.54147 19.6311C5.60605 19.5754 5.72231 19.6011 5.80626 19.691C5.89022 19.7809 5.90959 19.9051 5.84501 19.9607Z" fill="white"/>
<path d="M6.35741 20.7034C6.27776 20.7591 6.14214 20.7034 6.06679 20.5921C6.04596 20.5721 6.02939 20.5482 6.01807 20.5217C6.00676 20.4952 6.00092 20.4668 6.00092 20.438C6.00092 20.4092 6.00676 20.3808 6.01807 20.3543C6.02939 20.3278 6.04596 20.3039 6.06679 20.2839C6.14644 20.2304 6.28207 20.2839 6.35741 20.3931C6.43276 20.5022 6.43491 20.6478 6.35741 20.7034Z" fill="white"/>
<path d="M7.05268 21.4226C6.98164 21.5018 6.83742 21.4804 6.71902 21.3734C6.60062 21.2663 6.57263 21.1208 6.64367 21.0437C6.71471 20.9667 6.85894 20.9881 6.98164 21.093C7.10434 21.1978 7.12802 21.3455 7.05268 21.4226Z" fill="white"/>
<path d="M8.0278 21.8421C7.99551 21.9427 7.84913 21.9876 7.70275 21.9448C7.55637 21.902 7.4595 21.7821 7.48748 21.6794C7.51547 21.5767 7.664 21.5296 7.81254 21.5767C7.96107 21.6238 8.05579 21.7372 8.0278 21.8421Z" fill="white"/>
<path d="M9.09129 21.9148C9.09129 22.0197 8.97075 22.1096 8.81575 22.1118C8.66076 22.1139 8.53375 22.0283 8.53375 21.9234C8.53375 21.8185 8.6543 21.7286 8.80929 21.7265C8.96428 21.7243 9.09129 21.8078 9.09129 21.9148Z" fill="white"/>
<path d="M10.0815 21.7501C10.1009 21.8549 9.99328 21.9641 9.83829 21.9898C9.6833 22.0155 9.54768 21.9534 9.52831 21.8507C9.50893 21.7479 9.62087 21.6366 9.77156 21.6088C9.92225 21.581 10.0622 21.6452 10.0815 21.7501Z" fill="white"/>
</g>
<defs>
<clipPath id="clip0_60_943">
<rect width="26" height="26" fill="white" transform="translate(0.39447 0.275024)"/>
</clipPath>
</defs>
</svg>
