<svg width="26" height="26" viewBox="0 0 26 26" fill="none" xmlns="http://www.w3.org/2000/svg">
<g clip-path="url(#clip0_60_953)">
<path d="M12.8945 3.026C16.2343 3.026 16.6298 3.04065 17.9433 3.09924C19.164 3.15295 19.8232 3.35803 20.2626 3.52893C20.8437 3.75354 21.2636 4.02698 21.6982 4.46155C22.1376 4.901 22.4062 5.31604 22.6308 5.8971C22.8017 6.33655 23.0068 7.00061 23.0605 8.21643C23.1191 9.53479 23.1337 9.9303 23.1337 13.2653C23.1337 16.6051 23.1191 17.0006 23.0605 18.3141C23.0068 19.5348 22.8017 20.194 22.6308 20.6334C22.4062 21.2145 22.1328 21.6344 21.6982 22.069C21.2587 22.5084 20.8437 22.777 20.2626 23.0016C19.8232 23.1725 19.1591 23.3776 17.9433 23.4313C16.6249 23.4899 16.2294 23.5045 12.8945 23.5045C9.55463 23.5045 9.15912 23.4899 7.84564 23.4313C6.62494 23.3776 5.96576 23.1725 5.52631 23.0016C4.94525 22.777 4.52533 22.5035 4.09076 22.069C3.65131 21.6295 3.38275 21.2145 3.15814 20.6334C2.98724 20.194 2.78217 19.5299 2.72845 18.3141C2.66986 16.9957 2.65521 16.6002 2.65521 13.2653C2.65521 9.92542 2.66986 9.52991 2.72845 8.21643C2.78217 6.99573 2.98724 6.33655 3.15814 5.8971C3.38275 5.31604 3.65619 4.89612 4.09076 4.46155C4.53021 4.02209 4.94525 3.75354 5.52631 3.52893C5.96576 3.35803 6.62982 3.15295 7.84564 3.09924C9.15912 3.04065 9.55463 3.026 12.8945 3.026ZM12.8945 0.775024C9.50092 0.775024 9.07611 0.789673 7.7431 0.848267C6.41498 0.90686 5.50189 1.1217 4.71088 1.42932C3.88568 1.75159 3.18744 2.17639 2.49408 2.87463C1.79584 3.56799 1.37103 4.26624 1.04877 5.08655C0.74115 5.88245 0.526306 6.79065 0.467712 8.11877C0.409119 9.45667 0.39447 9.88147 0.39447 13.275C0.39447 16.6686 0.409119 17.0934 0.467712 18.4264C0.526306 19.7545 0.74115 20.6676 1.04877 21.4586C1.37103 22.2838 1.79584 22.9821 2.49408 23.6754C3.18744 24.3688 3.88568 24.7985 4.70599 25.1158C5.50189 25.4235 6.4101 25.6383 7.73822 25.6969C9.07123 25.7555 9.49603 25.7701 12.8896 25.7701C16.2831 25.7701 16.7079 25.7555 18.041 25.6969C19.3691 25.6383 20.2822 25.4235 21.0732 25.1158C21.8935 24.7985 22.5917 24.3688 23.2851 23.6754C23.9785 22.9821 24.4081 22.2838 24.7255 21.4635C25.0331 20.6676 25.248 19.7594 25.3066 18.4313C25.3652 17.0983 25.3798 16.6735 25.3798 13.2799C25.3798 9.88635 25.3652 9.46155 25.3066 8.12854C25.248 6.80042 25.0331 5.88733 24.7255 5.09631C24.4179 4.26624 23.9931 3.56799 23.2949 2.87463C22.6015 2.18127 21.9033 1.75159 21.0829 1.4342C20.287 1.12659 19.3788 0.911743 18.0507 0.853149C16.7128 0.789673 16.288 0.775024 12.8945 0.775024Z" fill="white"/>
<path d="M12.8945 6.85413C9.34955 6.85413 6.47357 9.7301 6.47357 13.275C6.47357 16.8199 9.34955 19.6959 12.8945 19.6959C16.4394 19.6959 19.3154 16.8199 19.3154 13.275C19.3154 9.7301 16.4394 6.85413 12.8945 6.85413ZM12.8945 17.4401C10.5947 17.4401 8.72943 15.5748 8.72943 13.275C8.72943 10.9752 10.5947 9.10999 12.8945 9.10999C15.1943 9.10999 17.0595 10.9752 17.0595 13.275C17.0595 15.5748 15.1943 17.4401 12.8945 17.4401Z" fill="white"/>
<path d="M21.0683 6.60022C21.0683 7.4303 20.3945 8.09925 19.5693 8.09925C18.7392 8.09925 18.0703 7.42542 18.0703 6.60022C18.0703 5.77014 18.7441 5.1012 19.5693 5.1012C20.3945 5.1012 21.0683 5.77503 21.0683 6.60022Z" fill="white"/>
</g>
<defs>
<clipPath id="clip0_60_953">
<rect width="25" height="25" fill="white" transform="translate(0.39447 0.775024)"/>
</clipPath>
</defs>
</svg>
