<svg width="24" height="24" viewBox="0 0 24 24" fill="none" xmlns="http://www.w3.org/2000/svg">
<path fill-rule="evenodd" clip-rule="evenodd" d="M20.8389 23.775H2.95003C1.53863 23.775 0.39447 22.6309 0.39447 21.2195V3.33058C0.39447 1.91919 1.53863 0.775024 2.95003 0.775024H20.8389C22.2503 0.775024 23.3945 1.91919 23.3945 3.33058V21.2195C23.3945 22.6309 22.2503 23.775 20.8389 23.775ZM16.7854 20.5831H20.1985V13.5717C20.1985 10.6051 18.5168 9.17067 16.1679 9.17067C13.8179 9.17067 12.8289 11.0007 12.8289 11.0007V9.509H9.53969V20.5831H12.8289V14.7699C12.8289 13.2123 13.5459 12.2854 14.9183 12.2854C16.1798 12.2854 16.7854 13.176 16.7854 14.7699V20.5831ZM3.58737 6.01545C3.58737 7.14394 4.49525 8.05894 5.61564 8.05894C6.73602 8.05894 7.64336 7.14394 7.64336 6.01545C7.64336 4.88697 6.73602 3.97196 5.61564 3.97196C4.49525 3.97196 3.58737 4.88697 3.58737 6.01545ZM7.34704 20.5831H3.91722V9.509H7.34704V20.5831Z" fill="white"/>
</svg>
