<svg width="201" height="201" viewBox="0 0 201 201" fill="none" xmlns="http://www.w3.org/2000/svg">
<rect x="0.0620728" y="0.604004" width="200" height="200" rx="60" fill="#071026"/>
<path d="M166.211 166.776C164.732 167.931 163.068 168.717 161.219 169.133C159.37 169.549 157.475 169.757 155.533 169.757C148.646 169.757 142.591 168.717 137.367 166.637C132.144 164.557 127.591 161.714 123.708 158.109C119.872 154.503 116.659 150.251 114.07 145.351C111.482 140.498 109.379 135.274 107.761 129.681C106.189 124.042 105.011 118.218 104.225 112.208C103.485 106.153 103.023 100.144 102.838 94.1812C102.699 88.2183 102.769 82.4403 103.046 76.8472C103.37 71.2541 103.786 66.1232 104.294 61.4546C101.613 64.8752 99.0707 68.9891 96.6671 73.7964C94.2634 78.6037 92.0216 83.7576 89.9415 89.2583C87.9076 94.759 86.0125 100.421 84.256 106.246C82.4994 112.024 80.9047 117.663 79.4718 123.164C78.0851 128.664 76.837 133.818 75.7276 138.625C74.6645 143.433 73.7631 147.547 73.0235 150.967C72.9311 151.337 72.8155 151.822 72.6768 152.423C72.5844 153.024 72.3995 153.602 72.1222 154.157C71.891 154.711 71.5675 155.174 71.1515 155.543C70.7354 155.959 70.227 156.167 69.6261 156.167C69.0714 156.167 68.5398 155.983 68.0313 155.613C67.5229 155.289 67.0606 154.873 66.6446 154.365C66.2286 153.903 65.8588 153.371 65.5352 152.77C65.2579 152.215 65.0499 151.684 64.9112 151.175C63.5245 146.692 62.4845 141.861 61.7911 136.684C61.144 131.553 60.6817 126.353 60.4044 121.083C60.1733 115.768 60.0577 110.498 60.0577 105.275C60.1039 100.052 60.127 95.1056 60.127 90.437C60.127 85.2599 60.1964 80.0828 60.3351 74.9058C60.4737 69.7287 60.728 64.5516 61.0977 59.3745C61.2364 57.5256 61.4213 55.4686 61.6524 53.2036C61.9298 50.9386 62.4614 48.8354 63.2472 46.894C64.033 44.9526 65.1655 43.3348 66.6446 42.0405C68.1238 40.7 70.1576 40.0298 72.7462 40.0298C73.3933 40.0298 73.9249 40.1916 74.3409 40.5151C74.8032 40.7925 75.0343 41.3009 75.0343 42.0405V42.5952C74.4334 48.0959 73.8787 53.5041 73.3702 58.8198C72.8617 64.0894 72.3995 69.3589 71.9835 74.6284C71.6137 79.8979 71.3132 85.2137 71.0821 90.5757C70.8972 95.8914 70.8048 101.346 70.8048 106.939C70.8048 112.393 70.9203 117.871 71.1515 123.372C71.3826 128.826 71.7755 134.28 72.3302 139.735C74.0405 131.877 75.8201 124.204 77.669 116.715C79.5642 109.227 81.7136 101.901 84.1173 94.7358C86.5209 87.5249 89.2944 80.4989 92.4376 73.6577C95.5808 66.8166 99.2556 60.1141 103.462 53.5503C103.832 52.9494 104.294 52.256 104.849 51.4702C105.45 50.6382 106.097 49.8755 106.79 49.1821C107.53 48.4425 108.292 47.8185 109.078 47.3101C109.864 46.8016 110.673 46.5474 111.505 46.5474C112.522 46.5474 113.308 47.0096 113.862 47.9341C114.463 48.8586 114.879 49.9448 115.11 51.1929C115.388 52.3947 115.55 53.6196 115.596 54.8677C115.642 56.1157 115.665 57.0864 115.665 57.7798C115.342 62.1248 114.949 67.0015 114.486 72.4097C114.07 77.8179 113.793 83.4803 113.654 89.397C113.516 95.3136 113.585 101.323 113.862 107.424C114.186 113.526 114.902 119.443 116.012 125.174C117.121 130.86 118.739 136.199 120.865 141.191C122.992 146.229 125.788 150.621 129.255 154.365C132.768 158.109 137.021 161.067 142.013 163.24C147.051 165.412 153.037 166.499 159.971 166.499C160.941 166.499 161.935 166.406 162.952 166.221C164.015 166.083 165.009 165.805 165.934 165.389L166.211 166.776Z" fill="#08F8CC"/>
</svg>
