<svg width="27" height="16" viewBox="0 0 27 16" fill="none" xmlns="http://www.w3.org/2000/svg">
<path d="M15.193 8.27507C15.193 12.3896 11.8802 15.7251 7.79373 15.7251C3.70726 15.7251 0.39447 12.3896 0.39447 8.27507C0.39447 4.16054 3.70726 0.825073 7.79373 0.825073C11.8802 0.825073 15.193 4.16054 15.193 8.27507Z" fill="white"/>
<path d="M23.3101 8.2751C23.3101 12.1483 21.6539 15.2881 19.6104 15.2881C17.5673 15.2881 15.9109 12.1483 15.9109 8.2751C15.9109 4.402 17.5673 1.26224 19.6104 1.26224C21.6539 1.26224 23.3101 4.402 23.3101 8.2751Z" fill="white"/>
<path d="M26.6304 8.27511C26.6304 11.7453 26.0477 14.5585 25.3292 14.5585C24.6106 14.5585 24.0282 11.7453 24.0282 8.27511C24.0282 4.80499 24.6106 1.99186 25.3292 1.99186C26.0477 1.99186 26.6304 4.80499 26.6304 8.27511Z" fill="white"/>
</svg>
